<svg width="561" height="308" viewBox="0 0 561 308" fill="none" xmlns="http://www.w3.org/2000/svg">
<path d="M401.724 230.396C403.932 230.396 405.723 232.187 405.724 234.396V301.529C405.724 301.873 405.681 302.206 405.6 302.524C405.681 302.842 405.724 303.175 405.724 303.519C405.724 305.728 403.933 307.518 401.724 307.519H159.277C157.068 307.519 155.277 305.728 155.277 303.519C155.277 303.333 155.291 303.151 155.315 302.972C155.3 302.827 155.291 302.68 155.291 302.531V235.397C155.291 233.188 157.082 231.397 159.291 231.397C161.5 231.397 163.291 233.188 163.291 235.397V299.519H397.724V234.396C397.724 232.187 399.515 230.396 401.724 230.396ZM280.5 79.5332C322.197 79.5332 356 113.112 356 154.533C356 195.955 322.197 229.533 280.5 229.533C238.803 229.533 205 195.955 205 154.533C205 113.112 238.803 79.5332 280.5 79.5332ZM280.5 87.5332C243.171 87.5332 213 117.58 213 154.533C213 191.486 243.171 221.533 280.5 221.533C317.829 221.533 348 191.486 348 154.533C348 117.58 317.829 87.5332 280.5 87.5332ZM279.5 105.533C307.39 105.533 330 127.919 330 155.533C330 183.147 307.39 205.533 279.5 205.533C251.61 205.533 229 183.147 229 155.533C229 127.919 251.61 105.533 279.5 105.533ZM157.5 119.533C178.211 119.533 195 136.323 195 157.033C195 177.744 178.211 194.533 157.5 194.533C138.312 194.533 122.493 180.122 120.27 161.533H74.7305C72.5072 180.122 56.6877 194.533 37.5 194.533C16.7893 194.533 0 177.744 0 157.033C0 136.323 16.7893 119.533 37.5 119.533C57.0304 119.533 73.0708 134.464 74.8359 153.533H120.164C121.929 134.464 137.97 119.533 157.5 119.533ZM523.5 119.533C544.211 119.533 561 136.323 561 157.033C561 177.744 544.211 194.533 523.5 194.533C503.97 194.533 487.929 179.603 486.164 160.533H440.836C439.071 179.603 423.03 194.533 403.5 194.533C382.789 194.533 366 177.744 366 157.033C366 136.323 382.789 119.533 403.5 119.533C422.688 119.533 438.507 133.944 440.73 152.533H486.27C488.493 133.944 504.312 119.533 523.5 119.533ZM401.723 0C403.932 0 405.723 1.79086 405.723 4C405.723 4.18562 405.708 4.36797 405.684 4.54688C405.699 4.69124 405.709 4.83776 405.709 4.98633V72.1201C405.709 74.3292 403.918 76.1201 401.709 76.1201C399.5 76.1201 397.709 74.3293 397.709 72.1201V8H163.276V73.123C163.276 75.3319 161.485 77.123 159.276 77.123C157.068 77.1228 155.277 75.3317 155.276 73.123V5.98926C155.276 5.64605 155.319 5.31201 155.4 4.99414C155.319 4.67644 155.276 4.34301 155.276 4C155.276 1.791 157.067 0.000226627 159.276 0H401.723Z" fill="black"/>
</svg>
